<svg width="105" height="26" viewBox="0 0 105 26" fill="none" xmlns="http://www.w3.org/2000/svg">
<rect width="105" height="26" fill="#D5D5D5"/>
<g id="Main" clip-path="url(#clip0_0_1)">
<rect width="1920" height="7909" transform="translate(-908 -7739)" fill="white"/>
<g id="Group 464">
<g id="Rectangle 101" filter="url(#filter0_d_0_1)">
<rect x="-907.904" y="-329.318" width="1920" height="499.318" fill="white"/>
</g>
<g id="Group 454">
<path id="Vector" d="M83.8895 0.989258C81.3854 0.989258 79.3691 3.00555 79.3691 5.50965V21.2254C79.3691 23.7295 81.3854 25.7458 83.8895 25.7458H92.4073V16.0675H89.8481V12.5831H92.4073V9.60609C92.4073 7.26722 93.9194 5.11974 97.4027 5.11974C98.8131 5.11974 99.856 5.25513 99.856 5.25513L99.7739 8.50908C99.7739 8.50908 98.7103 8.49903 97.5497 8.49903C96.2936 8.49903 96.0922 9.07778 96.0922 10.0386V12.5831H99.8737L99.709 16.0676H96.0922V25.7458H99.6053C102.109 25.7458 104.126 23.7295 104.126 21.2254V5.50968C104.126 3.00558 102.109 0.989283 99.6053 0.989283H83.8895L83.8895 0.989258Z" fill="#665F5F"/>
<path id="Vector_2" d="M52.0927 9.24054C49.8198 9.24054 47.9649 11.0954 47.9649 13.3683C47.9649 15.6413 49.8198 17.4961 52.0927 17.4961C54.3656 17.4961 56.2205 15.6413 56.2205 13.3683C56.2205 11.0954 54.3656 9.24054 52.0927 9.24054ZM64.473 13.3683C64.473 11.659 64.4885 9.96515 64.3925 8.25892C64.2965 6.27708 63.8444 4.5182 62.3952 3.06899C60.9428 1.61667 59.1871 1.16766 57.2052 1.07167C55.4959 0.975672 53.802 0.991155 52.0958 0.991155C50.3865 0.991155 48.6926 0.975672 46.9864 1.07167C45.0046 1.16766 43.2457 1.61977 41.7965 3.06899C40.3442 4.5213 39.8951 6.27708 39.7991 8.25892C39.7032 9.96825 39.7186 11.6621 39.7186 13.3683C39.7186 15.0746 39.7032 16.7715 39.7991 18.4778C39.8951 20.4596 40.3472 22.2185 41.7965 23.6677C43.2488 25.12 45.0046 25.569 46.9864 25.665C48.6957 25.761 50.3896 25.7455 52.0958 25.7455C53.8051 25.7455 55.499 25.761 57.2052 25.665C59.1871 25.569 60.9459 25.1169 62.3952 23.6677C63.8475 22.2154 64.2965 20.4596 64.3925 18.4778C64.4916 16.7715 64.473 15.0777 64.473 13.3683ZM52.0927 19.7195C48.5781 19.7195 45.7416 16.883 45.7416 13.3683C45.7416 9.85367 48.5781 7.01717 52.0927 7.01717C55.6074 7.01717 58.4439 9.85367 58.4439 13.3683C58.4439 16.883 55.6074 19.7195 52.0927 19.7195ZM58.704 8.24034C57.8834 8.24034 57.2207 7.57766 57.2207 6.75706C57.2207 5.93645 57.8834 5.27378 58.704 5.27378C59.5246 5.27378 60.1873 5.93645 60.1873 6.75706C60.1875 6.95191 60.1493 7.1449 60.0749 7.32497C60.0004 7.50504 59.8912 7.66865 59.7534 7.80644C59.6156 7.94422 59.452 8.05347 59.2719 8.12793C59.0918 8.20238 58.8988 8.24058 58.704 8.24034Z" fill="#665F5F"/>
<path id="Vector_3" d="M20.1812 0.990234C21.4599 0.990234 22.5532 1.44421 23.4611 2.35217C24.3691 3.26012 24.8231 4.35343 24.8231 5.63208V21.1049C24.8231 22.3836 24.3691 23.4769 23.4611 24.3848C22.5532 25.2928 21.4599 25.7468 20.1812 25.7468H8.496C9.40932 24.4359 9.98955 23.3076 10.2367 22.3621C10.3334 21.9967 10.6181 20.8739 11.0909 18.9935C11.3166 19.4126 11.7114 19.7725 12.2756 20.0734C12.8397 20.3743 13.4441 20.5247 14.0888 20.5247C16.0336 20.5247 17.6212 19.7322 18.8515 18.1473C20.0818 16.5625 20.697 14.5558 20.697 12.1274C20.697 11.2249 20.5089 10.3518 20.1329 9.50835C19.7568 8.66487 19.2383 7.91809 18.5775 7.26801C17.9167 6.61794 17.0974 6.09681 16.1196 5.70461C15.1418 5.31242 14.0834 5.11632 12.9444 5.11632C11.827 5.11632 10.782 5.26944 9.80958 5.57567C8.83715 5.8819 8.01516 6.2929 7.34359 6.80866C6.67203 7.32442 6.09448 7.91271 5.61096 8.57353C5.12743 9.23435 4.77016 9.92203 4.53914 10.6366C4.30813 11.3511 4.19262 12.063 4.19262 12.7721C4.19262 13.8681 4.40483 14.8352 4.82926 15.6733C5.25369 16.5114 5.87958 17.1024 6.70695 17.4462C6.84664 17.5 6.97289 17.5 7.08571 17.4462C7.19854 17.3925 7.27644 17.2904 7.31942 17.14C7.42687 16.6672 7.50745 16.3395 7.56118 16.1568C7.62565 15.9097 7.56655 15.684 7.38389 15.4799C6.84664 14.8137 6.57801 14.0078 6.57801 13.0623C6.57801 11.4505 7.13407 10.0725 8.24617 8.92812C9.35828 7.78377 10.8115 7.2116 12.606 7.2116C14.207 7.2116 15.4561 7.64677 16.3533 8.51712C17.2505 9.38747 17.6991 10.5157 17.6991 11.9018C17.6991 13.707 17.3365 15.2435 16.6112 16.5114C15.8859 17.7793 14.9538 18.4133 13.8148 18.4133C13.1701 18.4133 12.6489 18.1796 12.2514 17.7122C11.8538 17.2448 11.7302 16.6887 11.8807 16.044C11.9666 15.6787 12.109 15.1817 12.3078 14.5531C12.5066 13.9246 12.6651 13.3766 12.7833 12.9091C12.9015 12.4417 12.9606 12.0415 12.9606 11.7084C12.9606 11.1819 12.8182 10.744 12.5334 10.3948C12.2487 10.0456 11.8431 9.87099 11.3166 9.87099C10.6611 9.87099 10.1051 10.1745 9.6484 10.7816C9.19174 11.3887 8.9634 12.1382 8.9634 13.03C8.9634 13.8037 9.09235 14.4537 9.35023 14.9803L7.77071 21.6529C7.51283 22.7274 7.47522 24.092 7.65789 25.7468H4.70838C3.42972 25.7468 2.33641 25.2928 1.42846 24.3848C0.520505 23.4769 0.0665283 22.3836 0.0665283 21.1049V5.63208C0.0665283 4.35343 0.520505 3.26012 1.42846 2.35217C2.33641 1.44421 3.42972 0.990234 4.70838 0.990234H20.1812Z" fill="#665F5F"/>
</g>
</g>
</g>
<defs>
<filter id="filter0_d_0_1" x="-913.904" y="-339.318" width="1932" height="511.318" filterUnits="userSpaceOnUse" color-interpolation-filters="sRGB">
<feFlood flood-opacity="0" result="BackgroundImageFix"/>
<feColorMatrix in="SourceAlpha" type="matrix" values="0 0 0 0 0 0 0 0 0 0 0 0 0 0 0 0 0 0 127 0" result="hardAlpha"/>
<feOffset dy="-4"/>
<feGaussianBlur stdDeviation="3"/>
<feComposite in2="hardAlpha" operator="out"/>
<feColorMatrix type="matrix" values="0 0 0 0 0 0 0 0 0 0 0 0 0 0 0 0 0 0 0.25 0"/>
<feBlend mode="normal" in2="BackgroundImageFix" result="effect1_dropShadow_0_1"/>
<feBlend mode="normal" in="SourceGraphic" in2="effect1_dropShadow_0_1" result="shape"/>
</filter>
<clipPath id="clip0_0_1">
<rect width="1920" height="7909" fill="white" transform="translate(-908 -7739)"/>
</clipPath>
</defs>
</svg>
